<svg xmlns="http://www.w3.org/2000/svg" width="32px" height="32px" viewBox="0 0 226.872 318.982"><path d="M111.172 318.677c-27.351-1.39-44.77-4.776-59.361-11.538-1.739-.806-1.532-.361-3.693-7.917-3.66-12.792-7.352-28.273-10.426-43.71-1.793-9.006-2.04-10.116-6.266-28.133-6.78-28.911-8.505-37.61-10.68-53.882-1.414-10.577 1.624-17.477 3.659-8.31 8.004 36.068 14.932 62.4 22.256 84.608 2.526 7.656 2.328 7.339 4.446 7.135 1.456-.14 1.458-.129.37 2.404-1.486 3.46-.761 5.303 3.87 9.843 3.47 3.402 3.504 3.603.54 3.172-2.312-.338-2.198-.577-1.358 2.84.392 1.593 1.074 4.58 1.516 6.64 3.512 16.359 8.096 24.36 14.774 25.786 19.508 4.17 47.843 5.98 72.795 4.654 28.985-1.542 35.92-2.643 44.921-7.132 6.088-3.037 11.33-8.727 8.118-8.811-2.367-.063-2.589-.617-.581-1.45 4.371-1.812 6.218-3.742 5.86-6.125-.106-.712.029-1.454.561-3.08 1.637-4.998 1.911-9.063 1.492-22.106-.194-6.037-.18-6.47.28-8.734 1.21-5.966 1.753-10.478 2.643-22.007.63-8.138.833-10.175 1.484-14.86.653-4.693.862-7.356 1.235-15.768.729-16.453 1.541-23.005 3.038-24.502 2.504-2.504 2.49-3.838-.08-7.483-2.929-4.157-2.92-6.331.04-9.446 1.442-1.518 1.504-3.214.52-14.152-.253-2.808-.524-7.019-.602-9.359-.097-2.884-.224-4.253-.395-4.253-.545 0-4.063 3.006-11.816 10.097-8.813 8.06-11.117 9.963-16.06 13.263-10.194 6.807-19.983 10.14-36.914 12.571-17.09 2.454-37.21 1.874-50.382-1.451-8.876-2.24-14.014-4.66-24.026-11.309-9.377-6.228-8.866-16.31 1.05-20.757 4.466-2.002 1.01-4.183-7.953-5.02-6.742-.629-3.315-1.94 5.309-2.031 10.478-.111 17.922-3.832 27.548-13.768 4.03-4.16 4.97-4.977 10.34-8.994 8.538-6.388 11.551-9.16 12.913-11.886 1.03-2.06.972-4.096-.126-4.513-.36-.137-.537-.385-.537-.753 0-.686 2.088-.587-34.03-1.621-38.105-1.091-66.951-2.814-81.672-4.876-2.876-.403-1.506 2.146 2.004 3.729 1.11.5 1.214.948.262 1.132-2.593.501-2.449.133-1.705 4.36 2.887 16.408 7.372 20.485 16.145 14.678 1.738-1.15 2.344-1.365 6.59-2.33 9.3-2.11 19.338-3.273 34.327-3.976 15.455-.724 17.128-.782 17.314-.595.405.404-7.438 1.463-21.17 2.856-14.215 1.443-18.982 2.096-25.588 3.505-1.783.38-3.723.692-4.31.694-3.848.01-9.453 3.894-11.485 7.955-2.56 5.116-.203 8.174 6.784 8.804 2.34.21 8.055 1.227 9.07 1.612.874.333.697.88-.448 1.387-1.238.548-1.236.516-.114 1.224 2.244 1.417 1.288 1.326-4.914-.466-10.344-2.99-12.447-3.16-9.605-.781 1.347 1.128 1.29 1.456-.176 1.01-2.276-.69-2.227-1.15-.846 8.04 1.77 11.768.412 11.185-2.053-.883-3.392-16.606-8.882-30.748-6.43-16.562.533 3.08 1.134 5.508 2.92 11.798 2.406 8.477 3.816 16.596 2.972 17.118-.395.244-2.53-6.436-4.023-12.58-1.647-6.78-2.348-10.636-5.75-31.65C3.838 91.378 2.341 84.147.54 77.769c-1.026-3.636-.66-5.355 1.702-7.982 4.84-5.384 16.933-8.673 16.933-4.605 0 1.953-2.483 3.265-8.55 4.52-6.914 1.429-7.482 2.326-3.85 6.081 3.304 3.414 24.102 6.388 49.494 7.078 4.866.132 12.115.344 16.108.47 28.349.895 58.29.88 60.028-.03.199-.104 1.111-1.394 2.028-2.866 3.754-6.032 7.334-10.562 12.548-15.882 3.696-3.77 3.806-3.908 3.212-4.057-1.754-.44-1.897-7.47-.17-8.347 3.166-1.608 4.706-3.876 9.676-14.249 2.631-5.49 4.11-7.911 6.346-10.395 1.936-2.15 3.413-5.115 5.594-11.229 2.144-6.01 3.506-8.814 5.047-10.393 2.964-3.036 3.087-1.368.482 6.513-2.152 6.511-9.447 22.4-14.97 32.606-4.715 8.714-4.079 11.228 2.5 9.867 1.172-.242 2.266-.318 3.27-.226 1.736.158 3.618-.231 8.254-1.706 3.843-1.222 4.337-1.021 2.67 1.086-1.184 1.499-1.178 1.518.705 2.39 1.866.864 1.728 1.04-.812 1.04-3.522 0-5.976 1.408-6.332 3.63-.157.984-.157.984-1.629-.629-4.062-4.45-8.572-3.73-11.306 1.808-.956 1.936-2.466 3.359-3.565 3.359-.682 0-.523-.45 1.089-3.082 3.893-6.356 3.966-7.464.372-5.64-4.091 2.076-10.41 10.975-10.668 15.022-.225 3.528 3.927 5.425 7.078 3.234 11.979-8.33 17.907-11.621 13.011-7.224-1.017.913-2.112 1.966-2.434 2.34-2.317 2.695-4.126 3.897-7.515 4.992-11.283 3.647-11.283 8.712 0 8.442 3.01-.072 5.613-.029 6.343.105 5.473 1.005 29.672-3.158 42.003-7.225 7.809-2.576 9.093-5.705 4.29-10.452-6.174-6.102-12.74-4.895-8.59 1.578 2.572 4.013-5.157 8.28-18.208 10.05-5.878.798-8.121 1.194-10.28 1.812-1.473.422-5.817.954-9.353 1.146-4.68.254-6.168-.364-2.558-1.062 5.524-1.068 7.735-1.396 14.326-2.123 17.674-1.951 23.372-4.714 23.418-11.357.026-3.689-2.958-4.25-11.3-2.123q-4.006 1.021-.33-.749c3.749-1.804 3.453-3.347-.953-4.97-1.47-.541-1.47-.541.686-.714 9.861-.79 14.678-4.711 10.088-8.212-.9-.686-.873-.911.132-1.112.386-.077 1.143-.458 1.683-.845 2.17-1.559 3.982 3.268 2.066 5.506-2.63 3.073-.476 7.058 4.743 8.77 5.355 1.759 7.822-.67 5.61-5.523-.398-.873-1.182-3.425-1.74-5.671-3.186-12.796-10.091-27.111-13.078-27.111-.286 0-.479-.26-.63-.851-2.852-11.084-3.824-13.143-7.106-15.056-5.573-3.248-7.32-8.885-2.173-7.008 11.789 4.298 24.21 19.255 33.645 40.513 7.512 16.926 9.209 42.089 4.303 63.822-2.697 11.949-4.823 35.414-7.257 80.112-.994 18.261-1.981 31.73-3.168 43.22-.296 2.87-.601 6.238-.678 7.486-.581 9.406-2.703 26.936-4.792 39.59-.437 2.651-.628 4.91-.776 9.187-.562 16.214-5.733 24.216-16.715 25.864-1.153.173-3.096.622-4.318.997-14.35 4.406-28.776 6.256-57.692 7.4-9.672.382-9.415.382-17.355-.021m3.473-3.131c.63-.63-3.204-1.191-11.754-1.723-2.184-.136-4.685-.346-5.558-.467-5.55-.77-15.541-1.368-15.541-.93 0 1.696 31.304 4.668 32.853 3.12m-54.406-11.47c0-.54-4.47-18.199-5.373-21.227-1.663-5.58-5.003-13.496-5.621-13.325-.926.255 1.312 12.014 3.659 19.224 2.316 7.119 7.335 17.606 7.335 15.327m-6.97-1.735c.575-3.647-.555-8.943-4.452-20.863-2.338-7.15-3.11-9.85-3.665-12.808-.588-3.13-.535-2.986-1.063-2.908-2.198.328-2.007 3.788.717 12.957 1.972 6.638 2.197 7.537 2.497 9.972.85 6.913 5.39 17.3 5.965 13.65m-10.5-43.597c-.002-4.564-.645-8.282-2.717-15.71-2.316-8.308-3.234-11.904-3.752-14.692-.99-5.336-3.046-8.251-2.401-3.406.344 2.589 2.856 15.666 3.541 18.438.309 1.247.82 4.34 1.139 6.874.88 7.016 1.351 8.945 2.617 10.692 1.297 1.79 1.574 1.403 1.573-2.196m76.819-109.206c.625-.693.51-2.204-.463-6.101-1.327-5.313-1.322-7.788.017-9.833 2.268-3.462-10.846-5.006-18.573-2.185-7.042 2.57-8.608 6.874-4.24 11.653 2.143 2.345-.993 3.613-3.95 1.597-4.04-2.756-3.674-11.442.483-11.442.48 0 1.408-.97 1.408-1.474 0-.746-.896-1.375-2.803-1.968-2.636-.819-2.623-.984.112-1.433 6.42-1.054 12.475-5.605 22.039-16.564 12.423-14.234 17.37-18.501 10.783-9.302-3.327 4.647-6.11 7.866-11.668 13.5-9.966 10.099-11.206 12.25-7.06 12.25 6.272 0 9.07-2.573 14.803-13.612 5.415-10.426 8.083-13.108 11.908-11.97 1.616.481 1.608.512-2.904 11.63-4.171 10.277-3.982 13.099.721 10.769 2.347-1.163 2.259-1.012 3.192-5.438 2.299-10.902 7.04-25.863 8.197-25.863 1.532 0 .615 6.714-1.891 13.839-3.776 10.736-3.959 14.196-.909 17.216 3.323 3.29 7.047 2.683 9.929-1.616 1.054-1.573 1.521-1.359 2.342 1.075.611 1.81.713 1.87 3.243 1.906 3.476.049 8.23-1.209 8.491-2.246.085-.337.274-.533.464-.484 1.872.49 1.845-1.415-.032-2.222-1.22-.525-1.326-.858-.424-1.318 1.99-1.015 4.066.506 4.066 2.98 0 1.042.247 1.175 2.722 1.462 16.176 1.876 25.903-2.338 31.408-13.606a360 360 0 0 1 3.971-7.798c4.45-8.459 6.28-14.647 5.476-18.517-.468-2.257-.225-2.18-5.038-1.595-24.687 2.998-46.887 5.042-65.537 6.032-3.556.189-7.377.397-8.49.463-2.024.119-2.024.119-6.012 4.032-6.438 6.317-12.013 11.434-22.592 20.734-2.994 2.633-5.75 5.118-6.125 5.523-1.067 1.154-4.572 3.925-9.756 7.714-10.827 7.914-16.449 14.006-14.578 15.797 2.143 2.051 18.215 4.983 31.594 5.763 2.246.131 5.36.386 6.92.567 4.115.477 4.237.487 6.373.527 1.722.032 2-.02 2.383-.442m65.544-35.715c-8.44-1.368-16.572-6.132-25.014-14.653-5.566-5.619-4.921-6.055 2.997-2.026 5.802 2.953 7.897 3.69 10.333 3.632.936-.022 2.16-.049 2.722-.06 2.528-.05 12.292 5.337 11.36 6.268-.318.32-2.112-.254-5.574-1.783-11.089-4.894-18.18-4.93-10.663-.054 7.91 5.132 16.599 7.586 21.788 6.155 1.94-.535 2.472-.523 2.555.058.322 2.25-4.641 3.414-10.504 2.463m-46.722 35.742c.99-.249 4.813-.969 8.494-1.6 17.403-2.986 21.378-4.502 32.184-12.28 7.332-5.277 8.225-10.478 1.666-9.712-7.33.856-8.137 1.505-10.29 8.275-2.504 7.881-3.614 8.835-10.293 8.843-7.003.01-9.829-2.405-11.812-10.09-.7-2.718-.888-2.953-2.877-3.608-7.385-2.435-11.054 2.468-11.056 14.773 0 2.107-.128 2.222-2.56 2.288-3.96.108-4.387-1.208-2.049-6.307 3.101-6.761 3.22-8.089.816-9.106-5.207-2.204-10.403 3.382-9.42 10.126.88 6.046 5.226 9.237 10.659 7.827 1.542-.4 1.542-.4 2.899.3 1.633.842 1.42.827 3.639.27m24.205-10.321c3.091-.276 5.151-2.455 5.151-5.45 0-4.328-3.753-6.22-8.359-4.212-1.348.588-1.625.634-2.742.454-4.745-.765-6.674 3.172-3.385 6.908 2.118 2.406 3.718 2.8 9.335 2.3m-42.653-12.624c4.956-2.529 11.062-15.461 9.091-19.256-.582-1.12-.795-1.02-2.1.979-.637.975-2.227 3.191-3.534 4.925-6.085 8.072-7.675 11.522-6.056 13.14.82.82 1.326.861 2.599.212M90.79 282.597c-1.352-.173-6.049-1.026-10.436-1.894-8.547-1.691-12.389-2.278-14.924-2.278-2.343 0-2.873-.453-2.218-1.892.712-1.562 2.885-1.396 10.06.768 4.731 1.427 8 2.22 9.88 2.396.811.076 1.985.278 2.61.449 1.788.49 16.017 2.363 17.956 2.363.058 0 .043.102-.034.227-.21.34-9.976.235-12.894-.14m23.365-9.943c-2.964-1.452-3.881-3.37-4.67-9.77-.824-6.703-2.113-8.769-6.016-9.65-.63-.142-1.319-.305-1.53-.362-.537-.147-.951-2.3-.75-3.905.452-3.62 2.72-6.53 9.528-12.227 1.497-1.253 3.12-2.691 3.604-3.195 4.789-4.978 20.334 1.399 26.43 10.842 4.328 6.704 4.278 8.215-.372 11.28-5.732 3.778-6.554 4.86-6.438 8.465.038 1.186.086 2.717.106 3.403.127 4.299-2.353 5.413-8.572 3.853-5.266-1.32-6.95-1.113-9.072 1.118-.793.835-.84.838-2.248.148m15.12-2.994c4.119-2.107 4.98-7.324 1.958-11.85-3.24-4.853-7.437-3.18-7.287 2.905.184 7.488 2.051 10.621 5.329 8.945m-11.5-1.093c3.253-1.468 4.33-7.136 2.21-11.627-2.067-4.38-5.929-1.8-6.663 4.451-.11.946-.308 2.27-.439 2.943-.891 4.583.825 6.068 4.891 4.233m-7.171-15.102c3.606-2.413 7.201-2.525 18.263-.57 6.344 1.121 11.462.377 11.453-1.666-.03-7.606-4.627-9.86-16.331-8.012-7.367 1.164-10.082 1.168-13.397.021-3.648-1.262-7.99 2.195-7.349 5.852.598 3.408 4.945 5.992 7.36 4.375m-26.885-11.8c-16.5-3.47-26.964-23.22-18.318-34.57 2.65-3.48 3.487-2.266 1.638 2.375-7.716 19.366 16.344 37.497 35.01 26.383 13.644-8.124 13.476-27.99-.293-34.794-.562-.277-1.736-.944-2.61-1.481-5.333-3.281-11.337-3.067-22.804.813-6.696 2.266-6.49 2.267-4.38-.014 8.035-8.678 25.22-8.416 35.692.544 19.03 16.283 1.517 46.095-23.935 40.744m66.927-1.495c-26.027-3.984-34.81-29.05-15.323-43.73 17.412-13.115 44.136-.124 43.279 21.04-.528 13.035-14.89 24.691-27.956 22.69m5.332-4.256c19.97-.265 26.65-25.648 9.766-37.114-10.605-7.201-27.803-3.92-33.948 6.479-7.2 12.184.63 28.52 14.767 30.802.374.06 1.956.057 3.516-.008a254 254 0 0 1 5.899-.159m-19.98-11.1c-5.85-1.655-6.77-8.694-1.836-14.037 4.457-4.827 10.856-2.74 13.528 4.413 1.185 3.17.77 3.651-2.956 3.43-2.382-.143-3.506.032-3.501.543 0 .09.802.752 1.78 1.474 2.919 2.151 2.986 2.86.356 3.768-1.913.66-5.735.872-7.372.41m-61.824 1.423c-6.195-.59-8.378-3.947-5.87-9.024 2.975-6.02 9.725-7.779 13.48-3.514 5.68 6.454 1.463 13.402-7.61 12.538M23.818 65.153c-.082-.132.116-.617.44-1.078l1.175-1.671c.323-.459.642-1.247.71-1.752.077-.573.262-.96.491-1.03.938-.285 9.158-1.976 12.62-2.596 8.893-1.594 11.304-1.753 31.421-2.072 37.332-.591 51.616-1.063 65.425-2.16 4.751-.377 4.5-.427 5.624 1.12 1.769 2.434.217 4.132-4.486 4.906-5.65.929-28.402.343-34.46-.888-6.428-1.305-8.45-1.237-10.304.35-1.079.924-.842.925-3.687-.023-3.586-1.195-6.735-1.575-11.646-1.407-3.988.136-5.539.313-15.087 1.714-2.558.376-6.131.794-7.94.93-6.274.473-13.457 1.802-23.331 4.317-6.614 1.685-6.737 1.708-6.965 1.34m159.385-16.05c0-1.134 1.463-2.776 7.903-8.872 3.576-3.384 6.164-6.396 6.164-7.175 0-.739.633-.795.882-.08 1.388 3.98-1.418 7.93-9.277 13.063a414 414 0 0 0-4.26 2.81c-1.126.769-1.412.82-1.412.253" style="fill:#000"/></svg>
